<mxfile host="Electron" modified="2024-04-16T16:15:49.724Z" agent="Mozilla/5.0 (Windows NT 10.0; Win64; x64) AppleWebKit/537.36 (KHTML, like Gecko) draw.io/24.2.5 Chrome/120.0.6099.109 Electron/28.1.0 Safari/537.36" etag="nOJ1MjD1HpkC8KYId6B6" version="24.2.5" type="device">
  <diagram id="C5RBs43oDa-KdzZeNtuy" name="Page-1">
    <mxGraphModel dx="3088" dy="2013" grid="1" gridSize="10" guides="1" tooltips="1" connect="1" arrows="1" fold="1" page="1" pageScale="1" pageWidth="827" pageHeight="1169" math="0" shadow="0">
      <root>
        <mxCell id="WIyWlLk6GJQsqaUBKTNV-0" />
        <mxCell id="WIyWlLk6GJQsqaUBKTNV-1" parent="WIyWlLk6GJQsqaUBKTNV-0" />
        <mxCell id="KC9qn_wAbrLoVvTUjgyr-0" value="Palavra" style="swimlane;fontStyle=1;align=center;verticalAlign=top;childLayout=stackLayout;horizontal=1;startSize=26;horizontalStack=0;resizeParent=1;resizeParentMax=0;resizeLast=0;collapsible=1;marginBottom=0;whiteSpace=wrap;html=1;labelBackgroundColor=none;fillColor=#F5AB50;strokeColor=#909090;fontColor=#1A1A1A;" parent="WIyWlLk6GJQsqaUBKTNV-1" vertex="1">
          <mxGeometry x="80" y="-67" width="160" height="86" as="geometry" />
        </mxCell>
        <mxCell id="_CAOsdELL2yzEGwVwkre-25" value="+ palavra: str" style="text;strokeColor=none;fillColor=none;align=left;verticalAlign=top;spacingLeft=4;spacingRight=4;overflow=hidden;rotatable=0;points=[[0,0.5],[1,0.5]];portConstraint=eastwest;whiteSpace=wrap;html=1;labelBackgroundColor=none;fontColor=#1A1A1A;" parent="KC9qn_wAbrLoVvTUjgyr-0" vertex="1">
          <mxGeometry y="26" width="160" height="26" as="geometry" />
        </mxCell>
        <mxCell id="_CAOsdELL2yzEGwVwkre-26" value="+ alfabeto: Alfabeto" style="text;strokeColor=none;fillColor=none;align=left;verticalAlign=top;spacingLeft=4;spacingRight=4;overflow=hidden;rotatable=0;points=[[0,0.5],[1,0.5]];portConstraint=eastwest;whiteSpace=wrap;html=1;labelBackgroundColor=none;fontColor=#1A1A1A;" parent="KC9qn_wAbrLoVvTUjgyr-0" vertex="1">
          <mxGeometry y="52" width="160" height="26" as="geometry" />
        </mxCell>
        <mxCell id="KC9qn_wAbrLoVvTUjgyr-2" value="" style="line;strokeWidth=1;fillColor=none;align=left;verticalAlign=middle;spacingTop=-1;spacingLeft=3;spacingRight=3;rotatable=0;labelPosition=right;points=[];portConstraint=eastwest;strokeColor=#909090;labelBackgroundColor=none;fontColor=#1A1A1A;" parent="KC9qn_wAbrLoVvTUjgyr-0" vertex="1">
          <mxGeometry y="78" width="160" height="8" as="geometry" />
        </mxCell>
        <mxCell id="KC9qn_wAbrLoVvTUjgyr-4" value="Alfabeto" style="swimlane;fontStyle=1;align=center;verticalAlign=top;childLayout=stackLayout;horizontal=1;startSize=26;horizontalStack=0;resizeParent=1;resizeParentMax=0;resizeLast=0;collapsible=1;marginBottom=0;whiteSpace=wrap;html=1;labelBackgroundColor=none;fillColor=#F5AB50;strokeColor=#909090;fontColor=#1A1A1A;" parent="WIyWlLk6GJQsqaUBKTNV-1" vertex="1">
          <mxGeometry x="-260" y="-80" width="170" height="112" as="geometry" />
        </mxCell>
        <mxCell id="KC9qn_wAbrLoVvTUjgyr-5" value="+ símbolos_ordenados: list" style="text;strokeColor=none;fillColor=none;align=left;verticalAlign=top;spacingLeft=4;spacingRight=4;overflow=hidden;rotatable=0;points=[[0,0.5],[1,0.5]];portConstraint=eastwest;whiteSpace=wrap;html=1;labelBackgroundColor=none;fontColor=#1A1A1A;" parent="KC9qn_wAbrLoVvTUjgyr-4" vertex="1">
          <mxGeometry y="26" width="170" height="26" as="geometry" />
        </mxCell>
        <mxCell id="KC9qn_wAbrLoVvTUjgyr-6" value="" style="line;strokeWidth=1;fillColor=none;align=left;verticalAlign=middle;spacingTop=-1;spacingLeft=3;spacingRight=3;rotatable=0;labelPosition=right;points=[];portConstraint=eastwest;strokeColor=#909090;labelBackgroundColor=none;fontColor=#1A1A1A;" parent="KC9qn_wAbrLoVvTUjgyr-4" vertex="1">
          <mxGeometry y="52" width="170" height="8" as="geometry" />
        </mxCell>
        <mxCell id="_CAOsdELL2yzEGwVwkre-58" value="+ frt(int): Generator" style="text;strokeColor=none;fillColor=none;align=left;verticalAlign=top;spacingLeft=4;spacingRight=4;overflow=hidden;rotatable=0;points=[[0,0.5],[1,0.5]];portConstraint=eastwest;whiteSpace=wrap;html=1;labelBackgroundColor=none;fontColor=#1A1A1A;" parent="KC9qn_wAbrLoVvTUjgyr-4" vertex="1">
          <mxGeometry y="60" width="170" height="26" as="geometry" />
        </mxCell>
        <mxCell id="_CAOsdELL2yzEGwVwkre-56" value="+ fr(int): Generator" style="text;strokeColor=none;fillColor=none;align=left;verticalAlign=top;spacingLeft=4;spacingRight=4;overflow=hidden;rotatable=0;points=[[0,0.5],[1,0.5]];portConstraint=eastwest;whiteSpace=wrap;html=1;labelBackgroundColor=none;fontColor=#1A1A1A;" parent="KC9qn_wAbrLoVvTUjgyr-4" vertex="1">
          <mxGeometry y="86" width="170" height="26" as="geometry" />
        </mxCell>
        <mxCell id="KC9qn_wAbrLoVvTUjgyr-8" value="Linguagem" style="swimlane;fontStyle=1;align=center;verticalAlign=top;childLayout=stackLayout;horizontal=1;startSize=26;horizontalStack=0;resizeParent=1;resizeParentMax=0;resizeLast=0;collapsible=1;marginBottom=0;whiteSpace=wrap;html=1;labelBackgroundColor=none;fillColor=#F5AB50;strokeColor=#909090;fontColor=#1A1A1A;" parent="WIyWlLk6GJQsqaUBKTNV-1" vertex="1">
          <mxGeometry x="-574" y="-550" width="160" height="60" as="geometry">
            <mxRectangle x="300" y="340" width="100" height="30" as="alternateBounds" />
          </mxGeometry>
        </mxCell>
        <mxCell id="8KDkpB8A5qFGhit-usQy-15" value="+ gramática: Gramática" style="text;strokeColor=none;fillColor=none;align=left;verticalAlign=top;spacingLeft=4;spacingRight=4;overflow=hidden;rotatable=0;points=[[0,0.5],[1,0.5]];portConstraint=eastwest;whiteSpace=wrap;html=1;labelBackgroundColor=none;fontColor=#1A1A1A;" parent="KC9qn_wAbrLoVvTUjgyr-8" vertex="1">
          <mxGeometry y="26" width="160" height="26" as="geometry" />
        </mxCell>
        <mxCell id="KC9qn_wAbrLoVvTUjgyr-10" value="" style="line;strokeWidth=1;fillColor=none;align=left;verticalAlign=middle;spacingTop=-1;spacingLeft=3;spacingRight=3;rotatable=0;labelPosition=right;points=[];portConstraint=eastwest;strokeColor=#909090;labelBackgroundColor=none;fontColor=#1A1A1A;" parent="KC9qn_wAbrLoVvTUjgyr-8" vertex="1">
          <mxGeometry y="52" width="160" height="8" as="geometry" />
        </mxCell>
        <mxCell id="XZOa5JN2ejwMlJvhmXEw-7" value="Vocabulário" style="swimlane;fontStyle=1;align=center;verticalAlign=top;childLayout=stackLayout;horizontal=1;startSize=26;horizontalStack=0;resizeParent=1;resizeParentMax=0;resizeLast=0;collapsible=1;marginBottom=0;whiteSpace=wrap;html=1;labelBackgroundColor=none;fillColor=#F5AB50;strokeColor=#909090;fontColor=#1A1A1A;" parent="WIyWlLk6GJQsqaUBKTNV-1" vertex="1">
          <mxGeometry x="-570" y="-80" width="160" height="34" as="geometry">
            <mxRectangle x="20" y="170" width="90" height="30" as="alternateBounds" />
          </mxGeometry>
        </mxCell>
        <mxCell id="XZOa5JN2ejwMlJvhmXEw-9" value="" style="line;strokeWidth=1;fillColor=none;align=left;verticalAlign=middle;spacingTop=-1;spacingLeft=3;spacingRight=3;rotatable=0;labelPosition=right;points=[];portConstraint=eastwest;strokeColor=#909090;labelBackgroundColor=none;fontColor=#1A1A1A;" parent="XZOa5JN2ejwMlJvhmXEw-7" vertex="1">
          <mxGeometry y="26" width="160" height="8" as="geometry" />
        </mxCell>
        <mxCell id="XZOa5JN2ejwMlJvhmXEw-12" value="Produção" style="swimlane;fontStyle=1;align=center;verticalAlign=top;childLayout=stackLayout;horizontal=1;startSize=26;horizontalStack=0;resizeParent=1;resizeParentMax=0;resizeLast=0;collapsible=1;marginBottom=0;whiteSpace=wrap;html=1;labelBackgroundColor=none;fillColor=#F5AB50;strokeColor=#909090;fontColor=#1A1A1A;" parent="WIyWlLk6GJQsqaUBKTNV-1" vertex="1">
          <mxGeometry x="-875" y="70" width="160" height="86" as="geometry">
            <mxRectangle x="20" y="170" width="90" height="30" as="alternateBounds" />
          </mxGeometry>
        </mxCell>
        <mxCell id="_CAOsdELL2yzEGwVwkre-24" value="+ origem: str" style="text;strokeColor=none;fillColor=none;align=left;verticalAlign=top;spacingLeft=4;spacingRight=4;overflow=hidden;rotatable=0;points=[[0,0.5],[1,0.5]];portConstraint=eastwest;whiteSpace=wrap;html=1;labelBackgroundColor=none;fontColor=#1A1A1A;" parent="XZOa5JN2ejwMlJvhmXEw-12" vertex="1">
          <mxGeometry y="26" width="160" height="26" as="geometry" />
        </mxCell>
        <mxCell id="_CAOsdELL2yzEGwVwkre-23" value="+ produto: str" style="text;strokeColor=none;fillColor=none;align=left;verticalAlign=top;spacingLeft=4;spacingRight=4;overflow=hidden;rotatable=0;points=[[0,0.5],[1,0.5]];portConstraint=eastwest;whiteSpace=wrap;html=1;labelBackgroundColor=none;fontColor=#1A1A1A;" parent="XZOa5JN2ejwMlJvhmXEw-12" vertex="1">
          <mxGeometry y="52" width="160" height="26" as="geometry" />
        </mxCell>
        <mxCell id="XZOa5JN2ejwMlJvhmXEw-13" value="" style="line;strokeWidth=1;fillColor=none;align=left;verticalAlign=middle;spacingTop=-1;spacingLeft=3;spacingRight=3;rotatable=0;labelPosition=right;points=[];portConstraint=eastwest;strokeColor=#909090;labelBackgroundColor=none;fontColor=#1A1A1A;" parent="XZOa5JN2ejwMlJvhmXEw-12" vertex="1">
          <mxGeometry y="78" width="160" height="8" as="geometry" />
        </mxCell>
        <mxCell id="XZOa5JN2ejwMlJvhmXEw-26" value="Gramática" style="swimlane;fontStyle=1;align=center;verticalAlign=top;childLayout=stackLayout;horizontal=1;startSize=26;horizontalStack=0;resizeParent=1;resizeParentMax=0;resizeLast=0;collapsible=1;marginBottom=0;whiteSpace=wrap;html=1;labelBackgroundColor=none;fillColor=#F5AB50;strokeColor=#909090;fontColor=#1A1A1A;" parent="WIyWlLk6GJQsqaUBKTNV-1" vertex="1">
          <mxGeometry x="-600" y="-404" width="220" height="138" as="geometry">
            <mxRectangle x="20" y="170" width="90" height="30" as="alternateBounds" />
          </mxGeometry>
        </mxCell>
        <mxCell id="8KDkpB8A5qFGhit-usQy-11" value="+ alfabeto:&amp;nbsp;Alfabeto" style="text;strokeColor=none;fillColor=none;align=left;verticalAlign=top;spacingLeft=4;spacingRight=4;overflow=hidden;rotatable=0;points=[[0,0.5],[1,0.5]];portConstraint=eastwest;whiteSpace=wrap;html=1;labelBackgroundColor=none;fontColor=#1A1A1A;" parent="XZOa5JN2ejwMlJvhmXEw-26" vertex="1">
          <mxGeometry y="26" width="220" height="26" as="geometry" />
        </mxCell>
        <mxCell id="8KDkpB8A5qFGhit-usQy-9" value="+ vocabulário:&amp;nbsp;Vocabulário" style="text;strokeColor=none;fillColor=none;align=left;verticalAlign=top;spacingLeft=4;spacingRight=4;overflow=hidden;rotatable=0;points=[[0,0.5],[1,0.5]];portConstraint=eastwest;whiteSpace=wrap;html=1;labelBackgroundColor=none;fontColor=#1A1A1A;" parent="XZOa5JN2ejwMlJvhmXEw-26" vertex="1">
          <mxGeometry y="52" width="220" height="26" as="geometry" />
        </mxCell>
        <mxCell id="8KDkpB8A5qFGhit-usQy-10" value="+ sintaxe:&amp;nbsp;Sintaxe" style="text;strokeColor=none;fillColor=none;align=left;verticalAlign=top;spacingLeft=4;spacingRight=4;overflow=hidden;rotatable=0;points=[[0,0.5],[1,0.5]];portConstraint=eastwest;whiteSpace=wrap;html=1;labelBackgroundColor=none;fontColor=#1A1A1A;" parent="XZOa5JN2ejwMlJvhmXEw-26" vertex="1">
          <mxGeometry y="78" width="220" height="26" as="geometry" />
        </mxCell>
        <mxCell id="8KDkpB8A5qFGhit-usQy-6" value="+ símboloInicial:&amp;nbsp;str" style="text;strokeColor=none;fillColor=none;align=left;verticalAlign=top;spacingLeft=4;spacingRight=4;overflow=hidden;rotatable=0;points=[[0,0.5],[1,0.5]];portConstraint=eastwest;whiteSpace=wrap;html=1;labelBackgroundColor=none;fontColor=#1A1A1A;" parent="XZOa5JN2ejwMlJvhmXEw-26" vertex="1">
          <mxGeometry y="104" width="220" height="26" as="geometry" />
        </mxCell>
        <mxCell id="XZOa5JN2ejwMlJvhmXEw-27" value="" style="line;strokeWidth=1;fillColor=none;align=left;verticalAlign=middle;spacingTop=-1;spacingLeft=3;spacingRight=3;rotatable=0;labelPosition=right;points=[];portConstraint=eastwest;strokeColor=#909090;labelBackgroundColor=none;fontColor=#1A1A1A;" parent="XZOa5JN2ejwMlJvhmXEw-26" vertex="1">
          <mxGeometry y="130" width="220" height="8" as="geometry" />
        </mxCell>
        <mxCell id="3rAQtkAcfbmT3sl82F9G-8" value="Sintaxe" style="swimlane;fontStyle=1;align=center;verticalAlign=top;childLayout=stackLayout;horizontal=1;startSize=26;horizontalStack=0;resizeParent=1;resizeParentMax=0;resizeLast=0;collapsible=1;marginBottom=0;whiteSpace=wrap;html=1;labelBackgroundColor=none;fillColor=#F5AB50;strokeColor=#909090;fontColor=#1A1A1A;" parent="WIyWlLk6GJQsqaUBKTNV-1" vertex="1">
          <mxGeometry x="-875" y="-80" width="160" height="60" as="geometry">
            <mxRectangle x="20" y="170" width="90" height="30" as="alternateBounds" />
          </mxGeometry>
        </mxCell>
        <mxCell id="8KDkpB8A5qFGhit-usQy-2" value="- produções: dict" style="text;strokeColor=none;fillColor=none;align=left;verticalAlign=top;spacingLeft=4;spacingRight=4;overflow=hidden;rotatable=0;points=[[0,0.5],[1,0.5]];portConstraint=eastwest;whiteSpace=wrap;html=1;labelBackgroundColor=none;fontColor=#1A1A1A;" parent="3rAQtkAcfbmT3sl82F9G-8" vertex="1">
          <mxGeometry y="26" width="160" height="26" as="geometry" />
        </mxCell>
        <mxCell id="3rAQtkAcfbmT3sl82F9G-9" value="" style="line;strokeWidth=1;fillColor=none;align=left;verticalAlign=middle;spacingTop=-1;spacingLeft=3;spacingRight=3;rotatable=0;labelPosition=right;points=[];portConstraint=eastwest;strokeColor=#909090;labelBackgroundColor=none;fontColor=#1A1A1A;" parent="3rAQtkAcfbmT3sl82F9G-8" vertex="1">
          <mxGeometry y="52" width="160" height="8" as="geometry" />
        </mxCell>
        <mxCell id="_CAOsdELL2yzEGwVwkre-15" value="" style="endArrow=block;dashed=1;endFill=0;endSize=12;html=1;rounded=0;labelBackgroundColor=none;strokeColor=#182E3E;fontColor=default;" parent="WIyWlLk6GJQsqaUBKTNV-1" source="3rAQtkAcfbmT3sl82F9G-8" target="_CAOsdELL2yzEGwVwkre-16" edge="1">
          <mxGeometry width="160" relative="1" as="geometry">
            <mxPoint x="-760" y="26.580000000000013" as="sourcePoint" />
            <mxPoint x="-600" y="26.580000000000013" as="targetPoint" />
          </mxGeometry>
        </mxCell>
        <mxCell id="_CAOsdELL2yzEGwVwkre-16" value="«Interface»&lt;br&gt;&lt;b&gt;MutableMapping&lt;/b&gt;" style="html=1;whiteSpace=wrap;labelBackgroundColor=none;fillColor=#F5AB50;strokeColor=#909090;fontColor=#1A1A1A;" parent="WIyWlLk6GJQsqaUBKTNV-1" vertex="1">
          <mxGeometry x="-1010" y="-280" width="110" height="50" as="geometry" />
        </mxCell>
        <mxCell id="_CAOsdELL2yzEGwVwkre-20" value="&lt;span style=&quot;background-color: rgb(255, 255, 255);&quot;&gt;Tem&lt;/span&gt;" style="endArrow=open;html=1;endSize=12;startArrow=diamondThin;startSize=14;startFill=0;edgeStyle=orthogonalEdgeStyle;rounded=0;labelBackgroundColor=none;strokeColor=#182E3E;fontColor=default;" parent="WIyWlLk6GJQsqaUBKTNV-1" source="XZOa5JN2ejwMlJvhmXEw-12" target="3rAQtkAcfbmT3sl82F9G-8" edge="1">
          <mxGeometry relative="1" as="geometry">
            <mxPoint x="-760" y="130" as="sourcePoint" />
            <mxPoint x="-600" y="130" as="targetPoint" />
          </mxGeometry>
        </mxCell>
        <mxCell id="_CAOsdELL2yzEGwVwkre-21" value="1..n" style="edgeLabel;resizable=0;html=1;align=left;verticalAlign=bottom;labelPosition=right;verticalLabelPosition=top;labelBackgroundColor=none;fontColor=#1A1A1A;" parent="_CAOsdELL2yzEGwVwkre-20" connectable="0" vertex="1">
          <mxGeometry x="-1" relative="1" as="geometry">
            <mxPoint x="5" as="offset" />
          </mxGeometry>
        </mxCell>
        <mxCell id="_CAOsdELL2yzEGwVwkre-22" value="1" style="edgeLabel;resizable=0;html=1;align=right;verticalAlign=top;labelBackgroundColor=none;fontColor=#1A1A1A;" parent="_CAOsdELL2yzEGwVwkre-20" connectable="0" vertex="1">
          <mxGeometry x="1" relative="1" as="geometry">
            <mxPoint x="15" as="offset" />
          </mxGeometry>
        </mxCell>
        <mxCell id="_CAOsdELL2yzEGwVwkre-33" value="&lt;span style=&quot;background-color: rgb(255, 255, 255);&quot;&gt;Possui&lt;/span&gt;" style="endArrow=open;html=1;endSize=12;startArrow=diamondThin;startSize=14;startFill=0;edgeStyle=orthogonalEdgeStyle;rounded=0;labelBackgroundColor=none;strokeColor=#182E3E;fontColor=default;" parent="WIyWlLk6GJQsqaUBKTNV-1" source="XZOa5JN2ejwMlJvhmXEw-26" target="KC9qn_wAbrLoVvTUjgyr-8" edge="1">
          <mxGeometry relative="1" as="geometry">
            <mxPoint x="-553" y="-290" as="sourcePoint" />
            <mxPoint x="-413" y="-290" as="targetPoint" />
            <Array as="points">
              <mxPoint x="-530" y="-320" />
              <mxPoint x="-530" y="-320" />
            </Array>
          </mxGeometry>
        </mxCell>
        <mxCell id="_CAOsdELL2yzEGwVwkre-34" value="1" style="edgeLabel;resizable=0;html=1;align=left;verticalAlign=bottom;labelPosition=right;verticalLabelPosition=top;labelBackgroundColor=none;fontColor=#1A1A1A;" parent="_CAOsdELL2yzEGwVwkre-33" connectable="0" vertex="1">
          <mxGeometry x="-1" relative="1" as="geometry">
            <mxPoint x="10" as="offset" />
          </mxGeometry>
        </mxCell>
        <mxCell id="_CAOsdELL2yzEGwVwkre-35" value="1" style="edgeLabel;resizable=0;html=1;align=right;verticalAlign=top;labelBackgroundColor=none;fontColor=#1A1A1A;" parent="_CAOsdELL2yzEGwVwkre-33" connectable="0" vertex="1">
          <mxGeometry x="1" relative="1" as="geometry">
            <mxPoint x="20" y="4" as="offset" />
          </mxGeometry>
        </mxCell>
        <mxCell id="_CAOsdELL2yzEGwVwkre-41" value="&lt;span style=&quot;background-color: rgb(255, 255, 255);&quot;&gt;Possui&lt;/span&gt;" style="endArrow=open;html=1;endSize=12;startArrow=diamondThin;startSize=14;startFill=0;edgeStyle=orthogonalEdgeStyle;rounded=0;labelBackgroundColor=none;strokeColor=#182E3E;fontColor=default;" parent="WIyWlLk6GJQsqaUBKTNV-1" source="XZOa5JN2ejwMlJvhmXEw-7" target="XZOa5JN2ejwMlJvhmXEw-26" edge="1">
          <mxGeometry x="-0.5" relative="1" as="geometry">
            <mxPoint x="-430" y="90" as="sourcePoint" />
            <mxPoint x="-250" y="90" as="targetPoint" />
            <mxPoint as="offset" />
          </mxGeometry>
        </mxCell>
        <mxCell id="_CAOsdELL2yzEGwVwkre-42" value="1" style="edgeLabel;resizable=0;html=1;align=left;verticalAlign=bottom;labelPosition=right;verticalLabelPosition=top;labelBackgroundColor=none;fontColor=#1A1A1A;" parent="_CAOsdELL2yzEGwVwkre-41" connectable="0" vertex="1">
          <mxGeometry x="-1" relative="1" as="geometry">
            <mxPoint x="10" as="offset" />
          </mxGeometry>
        </mxCell>
        <mxCell id="_CAOsdELL2yzEGwVwkre-43" value="1" style="edgeLabel;resizable=0;html=1;align=right;verticalAlign=top;labelBackgroundColor=none;fontColor=#1A1A1A;" parent="_CAOsdELL2yzEGwVwkre-41" connectable="0" vertex="1">
          <mxGeometry x="1" relative="1" as="geometry">
            <mxPoint x="-10" y="4" as="offset" />
          </mxGeometry>
        </mxCell>
        <mxCell id="_CAOsdELL2yzEGwVwkre-44" value="&lt;span style=&quot;background-color: rgb(255, 255, 255);&quot;&gt;Possui&lt;/span&gt;" style="endArrow=open;html=1;endSize=12;startArrow=diamondThin;startSize=14;startFill=0;edgeStyle=orthogonalEdgeStyle;rounded=0;labelBackgroundColor=none;strokeColor=#182E3E;fontColor=default;" parent="WIyWlLk6GJQsqaUBKTNV-1" source="KC9qn_wAbrLoVvTUjgyr-4" target="XZOa5JN2ejwMlJvhmXEw-26" edge="1">
          <mxGeometry x="-0.8316" relative="1" as="geometry">
            <mxPoint x="-160" y="-110" as="sourcePoint" />
            <mxPoint x="-160" y="-270" as="targetPoint" />
            <Array as="points">
              <mxPoint x="-175" y="-160" />
              <mxPoint x="-490" y="-160" />
            </Array>
            <mxPoint as="offset" />
          </mxGeometry>
        </mxCell>
        <mxCell id="_CAOsdELL2yzEGwVwkre-45" value="1" style="edgeLabel;resizable=0;html=1;align=left;verticalAlign=bottom;labelPosition=right;verticalLabelPosition=top;labelBackgroundColor=none;fontColor=#1A1A1A;" parent="_CAOsdELL2yzEGwVwkre-44" connectable="0" vertex="1">
          <mxGeometry x="-1" relative="1" as="geometry">
            <mxPoint x="5" as="offset" />
          </mxGeometry>
        </mxCell>
        <mxCell id="_CAOsdELL2yzEGwVwkre-46" value="1" style="edgeLabel;resizable=0;html=1;align=right;verticalAlign=top;labelBackgroundColor=none;fontColor=#1A1A1A;" parent="_CAOsdELL2yzEGwVwkre-44" connectable="0" vertex="1">
          <mxGeometry x="1" relative="1" as="geometry">
            <mxPoint x="-10" y="4" as="offset" />
          </mxGeometry>
        </mxCell>
        <mxCell id="_CAOsdELL2yzEGwVwkre-47" value="&lt;span style=&quot;background-color: rgb(255, 255, 255);&quot;&gt;Possui&lt;/span&gt;" style="endArrow=open;html=1;endSize=12;startArrow=diamondThin;startSize=14;startFill=0;edgeStyle=orthogonalEdgeStyle;rounded=0;labelBackgroundColor=none;strokeColor=#182E3E;fontColor=default;" parent="WIyWlLk6GJQsqaUBKTNV-1" source="3rAQtkAcfbmT3sl82F9G-8" target="XZOa5JN2ejwMlJvhmXEw-26" edge="1">
          <mxGeometry x="-0.8279" relative="1" as="geometry">
            <mxPoint x="-440" y="96" as="sourcePoint" />
            <mxPoint x="-710" y="-120" as="targetPoint" />
            <Array as="points">
              <mxPoint x="-795" y="-160" />
              <mxPoint x="-490" y="-160" />
            </Array>
            <mxPoint as="offset" />
          </mxGeometry>
        </mxCell>
        <mxCell id="_CAOsdELL2yzEGwVwkre-48" value="1" style="edgeLabel;resizable=0;html=1;align=left;verticalAlign=bottom;labelPosition=right;verticalLabelPosition=top;labelBackgroundColor=none;fontColor=#1A1A1A;" parent="_CAOsdELL2yzEGwVwkre-47" connectable="0" vertex="1">
          <mxGeometry x="-1" relative="1" as="geometry">
            <mxPoint x="15" as="offset" />
          </mxGeometry>
        </mxCell>
        <mxCell id="_CAOsdELL2yzEGwVwkre-49" value="1" style="edgeLabel;resizable=0;html=1;align=right;verticalAlign=top;labelBackgroundColor=none;fontColor=#1A1A1A;" parent="_CAOsdELL2yzEGwVwkre-47" connectable="0" vertex="1">
          <mxGeometry x="1" relative="1" as="geometry">
            <mxPoint x="-10" y="4" as="offset" />
          </mxGeometry>
        </mxCell>
        <mxCell id="nFv0BWGudqckhCx5-pgA-0" value="&lt;p style=&quot;margin:0px;margin-top:4px;text-align:center;&quot;&gt;&lt;b&gt;Set&lt;/b&gt;&lt;/p&gt;" style="verticalAlign=top;align=left;overflow=fill;html=1;whiteSpace=wrap;labelBackgroundColor=none;fillColor=#F5AB50;strokeColor=#909090;fontColor=#1A1A1A;" vertex="1" parent="WIyWlLk6GJQsqaUBKTNV-1">
          <mxGeometry x="-320" y="-286" width="150" height="20" as="geometry" />
        </mxCell>
        <mxCell id="nFv0BWGudqckhCx5-pgA-4" value="Extends" style="endArrow=block;endSize=16;endFill=0;html=1;rounded=0;strokeColor=#182E3E;fontColor=#1A1A1A;" edge="1" parent="WIyWlLk6GJQsqaUBKTNV-1" source="XZOa5JN2ejwMlJvhmXEw-7" target="nFv0BWGudqckhCx5-pgA-0">
          <mxGeometry width="160" relative="1" as="geometry">
            <mxPoint x="-480" y="60" as="sourcePoint" />
            <mxPoint x="-320" y="60" as="targetPoint" />
          </mxGeometry>
        </mxCell>
        <mxCell id="nFv0BWGudqckhCx5-pgA-5" value="Extends" style="endArrow=block;endSize=16;endFill=0;html=1;rounded=0;strokeColor=#182E3E;fontColor=#1A1A1A;" edge="1" parent="WIyWlLk6GJQsqaUBKTNV-1" source="KC9qn_wAbrLoVvTUjgyr-4" target="nFv0BWGudqckhCx5-pgA-0">
          <mxGeometry width="160" relative="1" as="geometry">
            <mxPoint x="-438" y="30" as="sourcePoint" />
            <mxPoint x="-214" y="-130" as="targetPoint" />
          </mxGeometry>
        </mxCell>
        <mxCell id="_CAOsdELL2yzEGwVwkre-27" value="&lt;span style=&quot;background-color: rgb(255, 255, 255);&quot;&gt;Possui&lt;/span&gt;" style="endArrow=open;html=1;endSize=12;startArrow=diamondThin;startSize=14;startFill=0;edgeStyle=orthogonalEdgeStyle;rounded=0;labelBackgroundColor=none;strokeColor=#182E3E;fontColor=default;" parent="WIyWlLk6GJQsqaUBKTNV-1" source="KC9qn_wAbrLoVvTUjgyr-4" target="KC9qn_wAbrLoVvTUjgyr-0" edge="1">
          <mxGeometry x="-0.0526" relative="1" as="geometry">
            <mxPoint x="-440" y="140" as="sourcePoint" />
            <mxPoint x="-10" y="100" as="targetPoint" />
            <mxPoint as="offset" />
          </mxGeometry>
        </mxCell>
        <mxCell id="_CAOsdELL2yzEGwVwkre-28" value="1" style="edgeLabel;resizable=0;html=1;align=left;verticalAlign=bottom;labelPosition=right;verticalLabelPosition=top;labelBackgroundColor=none;fontColor=#1A1A1A;" parent="_CAOsdELL2yzEGwVwkre-27" connectable="0" vertex="1">
          <mxGeometry x="-1" relative="1" as="geometry">
            <mxPoint x="5" y="24" as="offset" />
          </mxGeometry>
        </mxCell>
        <mxCell id="_CAOsdELL2yzEGwVwkre-29" value="1" style="edgeLabel;resizable=0;html=1;align=right;verticalAlign=top;labelBackgroundColor=none;fontColor=#1A1A1A;" parent="_CAOsdELL2yzEGwVwkre-27" connectable="0" vertex="1">
          <mxGeometry x="1" relative="1" as="geometry">
            <mxPoint x="-10" y="4" as="offset" />
          </mxGeometry>
        </mxCell>
      </root>
    </mxGraphModel>
  </diagram>
</mxfile>
